<?xml version="1.0" encoding="UTF-8"?>
<svg width="1466px" height="676px" viewBox="0 0 1466 676" version="1.1" xmlns="http://www.w3.org/2000/svg" xmlns:xlink="http://www.w3.org/1999/xlink">
    <!-- Generator: Sketch 57.1 (83088) - https://sketch.com -->
    <title>Hero Image@2x</title>
    <desc>Created with Sketch.</desc>
    <g id="Hero-Image" stroke="none" stroke-width="1" fill="none" fill-rule="evenodd">
        <path d="M122.791795,640.452363 C122.791795,640.452363 -56.6492991,560.701795 18.3071073,484.531759 C93.2635137,408.362859 348.399221,412.966561 326.820862,328.067206 C305.242503,243.168987 251.6941,214.724603 286.443209,150.29889 C328.155313,72.9671407 450.210464,135.709901 509.318133,162.790436 C619.204225,213.13477 740.974314,218.71849 698.772722,148.311599 C656.572265,77.9047078 611.957303,51.0297161 652.029453,10.9046016 C706.56251,-43.7016206 940.577546,116.514939 1068.91881,274.808935 C1145.72642,369.544814 1201.70522,303.624659 1193.93701,242.761308 C1188.98535,204.077264 1134.58517,124.252883 1191.65425,88.125063 C1246.66771,53.3009061 1375.16116,161.223315 1418.80623,227.858895 C1533.1034,402.329443 1403.86038,640.452363 1403.86038,640.452363 L122.791795,640.452363" id="Fill-3" fill="#F8F7FF"></path>
        <polyline id="Fill-5" fill="#3F327A" points="943.645236 344.072812 941.129136 398.49684 941.129136 398.508279 940.029758 422.426026 831.225407 422.426026 834.840885 344.072812 943.645236 344.072812"></polyline>
        <polyline id="Fill-6" fill="#D9D1DF" points="940.238575 415.612703 939.922656 422.426026 781.261038 422.426026 781.261038 415.612703 940.238575 415.612703"></polyline>
        <polyline id="Fill-7" fill="#7860DC" points="941.374129 398.579396 940.587166 415.612703 832.36096 415.612703 836.085084 415.030075 941.374129 398.579396"></polyline>
        <polyline id="Fill-8" fill="#AB9AF8" points="825.547637 496.009295 892.638181 496.237026 893.680868 470.453194 826.778761 465.577072 825.547637 496.009295"></polyline>
        <polyline id="Fill-9" fill="#E98B9C" points="885.043789 391.766073 797.158792 408.916956 798.462663 422.403343 803.07741 422.404477 809.89372 422.403343 888.003098 422.426026 885.043789 391.766073"></polyline>
        <polyline id="Fill-10" fill="#E98B9C" points="799.545157 422.424883 798.294345 408.828842 803.971023 407.663826 803.972115 422.426026 799.545157 422.424883"></polyline>
        <path d="M822.105074,316.81952 L784.667699,316.81952 L784.667699,275.812863 C784.667699,263.339102 794.778284,253.228505 807.250639,253.228505 C819.297582,253.228505 830.249963,262.685677 830.832224,274.721564 L832.348812,306.066783 C832.630916,311.919396 827.963797,316.81952 822.105074,316.81952" id="Fill-11" fill="#E98B9C"></path>
        <path d="M832.348356,306.069978 C832.636126,311.917052 827.959582,316.81952 822.102618,316.81952 L784.667699,316.81952 L784.667699,275.813264 C784.667699,263.341538 794.780273,253.228505 807.251432,253.228505 C813.272031,253.228505 819.794816,255.597354 823.846165,259.463803 C827.908799,263.330253 830.543869,268.704459 830.831639,274.716302 L832.348356,306.069978" id="Fill-12" fill="#E98B9C"></path>
        <path d="M838.03873,256.462214 L838.03873,268.667406 C838.03873,269.611654 837.923138,270.525406 837.69311,271.397366 L814.192099,271.397366 L814.192099,244.144074 L825.432266,244.144074 C832.39784,244.144074 838.03873,249.655951 838.03873,256.462214" id="Fill-13" fill="#7860DC"></path>
        <path d="M794.051884,249.821844 L797.158792,249.821844 L797.158792,288.430674 L773.312161,288.430674 L773.312161,270.333702 C773.312161,259.00518 782.597514,249.821844 794.051884,249.821844" id="Fill-14" fill="#7860DC"></path>
        <path d="M834.632068,269.126259 L810.033303,269.126259 C800.429177,269.126259 792.616576,261.184023 792.616576,251.420533 C792.616576,246.774834 796.322553,243.008521 800.891286,243.008521 C805.462294,243.008521 809.168272,246.774834 809.168272,251.420533 C809.168272,251.905352 809.556398,252.301076 810.033303,252.301076 L834.632068,252.301076 L834.632068,269.126259" id="Fill-15" fill="#7860DC"></path>
        <path d="M825.159741,260.041828 L812.307741,260.041828 C807.705375,260.041828 803.972115,256.228016 803.972115,251.525174 C803.972115,246.822332 807.705375,243.008521 812.307741,243.008521 L825.159741,243.008521 C829.764401,243.008521 833.496514,246.822332 833.496514,251.525174 C833.496514,256.228016 829.764401,260.041828 825.159741,260.041828" id="Fill-16" fill="#7860DC"></path>
        <path d="M843.716499,264.583474 C843.716499,271.482262 838.079635,277.075136 831.124018,277.075136 C824.16955,277.075136 817.598761,271.482262 817.598761,264.583474 C817.598761,257.684685 824.16955,252.092951 831.124018,252.092951 C838.079635,252.092951 843.716499,257.684685 843.716499,264.583474" id="Fill-17" fill="#7860DC"></path>
        <polygon id="Fill-18" fill="#7860DC" points="791.481022 277.075136 825.547637 277.075136 825.547637 262.312936 791.481022 262.312936"></polygon>
        <polygon id="Fill-19" fill="#7860DC" points="792.616576 290.701782 818.734314 290.701782 818.734314 274.804028 792.616576 274.804028"></polygon>
        <path d="M802.477697,306.599535 L787.512134,306.599535 C779.669983,306.599535 773.312161,300.296714 773.312161,292.521005 L773.312161,285.024012 L813.056545,285.024012 L813.056545,296.110317 C813.056545,301.903293 808.320174,306.599535 802.477697,306.599535" id="Fill-20" fill="#7860DC"></path>
        <path d="M798.862122,349.750581 L798.862122,349.750581 C791.022259,349.750581 784.667699,343.384835 784.667699,335.53371 L784.667699,306.599535 L813.056545,306.599535 L813.056545,335.53371 C813.056545,343.384835 806.701986,349.750581 798.862122,349.750581" id="Fill-21" fill="#E98B9C"></path>
        <path d="M819.302091,297.515105 L825.547637,297.515105 L825.547637,285.024012 L819.302091,285.024012 C815.852323,285.024012 813.056545,287.81979 813.056545,291.269558 C813.056545,294.718181 815.852323,297.515105 819.302091,297.515105" id="Fill-22" fill="#E98B9C"></path>
        <path d="M828.954299,270.261813 L813.056545,270.261813 L813.056545,285.024012 L820.422567,285.024012 C825.134663,285.024012 828.954299,281.337424 828.954299,276.78833 L828.954299,270.261813" id="Fill-23" fill="#7860DC"></path>
        <path d="M784.667699,335.556158 C784.667699,343.394886 791.022259,349.750581 798.862122,349.750581 C806.701986,349.750581 813.056545,343.394886 813.056545,335.556158 C813.056545,327.716294 806.701986,321.361735 798.862122,321.361735 C791.022259,321.361735 784.667699,327.716294 784.667699,335.556158" id="Fill-24" fill="#E98B9C"></path>
        <path d="M867.563129,627.392922 C867.563129,632.72368 871.88515,637.045701 877.215909,637.045701 C882.546668,637.045701 886.867545,632.72368 886.867545,627.392922 C886.867545,622.062163 882.546668,617.741286 877.215909,617.741286 C871.88515,617.741286 867.563129,622.062163 867.563129,627.392922" id="Fill-25" fill="#3FB498"></path>
        <path d="M878.918668,483.178721 C878.918668,490.391052 884.764389,496.237026 891.976408,496.237026 C899.189556,496.237026 905.036406,490.391052 905.036406,483.178721 C905.036406,475.965261 899.189556,470.119287 891.976408,470.119287 C884.764389,470.119287 878.918668,475.965261 878.918668,483.178721" id="Fill-26" fill="#AB9AF8"></path>
        <polyline id="Fill-27" fill="#AB9AF8" points="867.563129 627.591561 878.898059 482.61038 905.036406 484.671292 886.636415 629.096824 867.563129 627.591561"></polyline>
        <path d="M896.497258,639.316809 L867.563129,639.316809 L867.563129,627.96127 L886.817588,627.96127 L897.867528,633.963808 C898.786361,634.464587 899.358637,635.422995 899.358637,636.466569 C899.358637,638.040446 898.077286,639.316809 896.497258,639.316809" id="Fill-28" fill="#7860DC"></path>
        <path d="M811.920991,627.392922 C811.920991,632.72368 816.243012,637.045701 821.573771,637.045701 C826.90453,637.045701 831.225407,632.72368 831.225407,627.392922 C831.225407,622.062163 826.90453,617.741286 821.573771,617.741286 C816.243012,617.741286 811.920991,622.062163 811.920991,627.392922" id="Fill-29" fill="#9E91BA"></path>
        <path d="M823.27653,483.178721 C823.27653,490.391052 829.122251,496.237026 836.335399,496.237026 C843.547418,496.237026 849.394268,490.391052 849.394268,483.178721 C849.394268,475.965261 843.547418,470.119287 836.335399,470.119287 C829.122251,470.119287 823.27653,475.965261 823.27653,483.178721" id="Fill-30" fill="#9E91BA"></path>
        <polyline id="Fill-31" fill="#AB9AF8" points="811.920991 627.591561 823.256264 482.61038 849.394268 484.671292 830.994854 629.096824 811.920991 627.591561"></polyline>
        <path d="M840.85398,639.316809 L811.920991,639.316809 L811.920991,627.96127 L831.174311,627.96127 L842.22425,633.963808 C843.144223,634.464587 843.716499,635.422995 843.716499,636.466569 C843.716499,638.040446 842.435148,639.316809 840.85398,639.316809" id="Fill-32" fill="#7860DC"></path>
        <polyline id="Fill-33" fill="#DED7FF" points="1168.4849 467.84818 1118.57847 639.316809 1112.84276 639.316809 1153.65154 467.84818 1168.4849 467.84818"></polyline>
        <polyline id="Fill-34" fill="#DED7FF" points="1220.72037 467.84818 1270.62679 639.316809 1276.36251 639.316809 1235.54237 467.84818 1220.72037 467.84818"></polyline>
        <path d="M1110.57165,442.865995 C1110.57165,489.274945 1148.19255,526.896979 1194.60263,526.896979 C1241.01272,526.896979 1278.63362,489.274945 1278.63362,442.865995 C1278.63362,396.457046 1241.01272,358.835012 1194.60263,358.835012 C1148.19255,358.835012 1110.57165,396.457046 1110.57165,442.865995" id="Fill-35" fill="#FFC359"></path>
        <path d="M1275.17099,470.119287 L1272.95585,469.392633 C1274.48313,464.837155 1275.61402,460.115056 1276.3252,455.357088 L1278.63362,455.697273 C1277.89912,460.585993 1276.73326,465.438844 1275.17099,470.119287" id="Fill-36" fill="#E67793"></path>
        <path d="M1193.63674,528.032533 C1179.98908,528.032533 1166.9452,524.886011 1154.85825,518.680179 L1155.89492,516.636432 C1167.65151,522.675872 1180.35363,525.737477 1193.63674,525.737477 C1226.55973,525.737477 1256.42965,506.134255 1269.73555,475.797057 L1271.82029,476.724259 C1258.14985,507.892268 1227.4597,528.032533 1193.63674,528.032533" id="Fill-37" fill="#E67793"></path>
        <path d="M1155.9938,435.484322 C1155.9938,450.223591 1167.94203,462.170411 1182.67932,462.170411 C1197.41661,462.170411 1209.36483,450.223591 1209.36483,435.484322 C1209.36483,420.747348 1197.41661,408.79938 1182.67932,408.79938 C1167.94203,408.79938 1155.9938,420.747348 1155.9938,435.484322" id="Fill-38" fill="#9E91BA"></path>
        <path d="M1032.57085,411.900049 C1031.48559,408.958717 1032.99088,405.694986 1035.93222,404.609724 C1038.87242,403.524463 1042.13615,405.028617 1043.22141,407.969949 C1044.30668,410.91128 1042.80252,414.175011 1039.86119,415.260273 C1036.91985,416.345534 1033.65612,414.840245 1032.57085,411.900049" id="Fill-39" fill="#E98B9C"></path>
        <path d="M1152.58714,352.021121 C1152.58714,360.174711 1159.19607,366.783888 1167.34934,366.783888 C1175.50262,366.783888 1182.11154,360.174711 1182.11154,352.021121 C1182.11154,343.868666 1175.50262,337.259489 1167.34934,337.259489 C1159.19607,337.259489 1152.58714,343.868666 1152.58714,352.021121" id="Fill-40" fill="#9E91BA"></path>
        <path d="M1024.20727,404.565576 L1024.20958,404.57337 C1023.34027,404.592298 1022.46173,404.74038 1021.60049,405.047678 C1017.41881,406.536291 1015.27897,411.018832 1016.82159,415.057127 C1018.36537,419.095422 1023.00476,421.160776 1027.18645,419.671049 L1040.16731,415.047107 L1038.039,404.257165 L1024.20727,404.565576" id="Fill-41" fill="#E98B9C"></path>
        <path d="M1099.88745,381.304437 C1101.94257,386.891817 1108.15361,389.751725 1113.7367,387.689851 C1119.3312,385.627978 1122.18554,379.426373 1120.119,373.838993 C1118.06388,368.25047 1111.86425,365.391704 1106.26975,367.453578 C1100.68666,369.515452 1097.8209,375.715914 1099.88745,381.304437" id="Fill-42" fill="#E98B9C"></path>
        <polyline id="Fill-43" fill="#FE95A9" points="1159.94184 339.530596 1104.89388 368.662073 1113.57016 388.359411 1171.89156 366.638022 1159.94184 339.530596"></polyline>
        <polyline id="Fill-44" fill="#E98B9C" points="1105.23078 367.919442 1035.6251 404.133765 1040.25809 414.477149 1113.97831 387.460475 1105.23078 367.919442"></polyline>
        <path d="M1148.04493,628.529047 C1148.04493,632.605686 1144.74046,635.910147 1140.66383,635.910147 C1136.58719,635.910147 1133.28273,632.605686 1133.28273,628.529047 C1133.28273,624.452409 1136.58719,621.147947 1140.66383,621.147947 C1144.74046,621.147947 1148.04493,624.452409 1148.04493,628.529047" id="Fill-45" fill="#392E65"></path>
        <path d="M1152.60292,353.782277 L1156.41046,436.052672 L1208.94772,436.052672 L1230.66312,349.652918 C1232.09801,343.938565 1227.78204,338.395043 1221.89561,338.395043 L1167.27946,338.395043 C1158.8961,338.395043 1152.21878,345.401376 1152.60292,353.782277" id="Fill-46" fill="#DDD6FF"></path>
        <path d="M1181.19761,346.913656 C1184.0128,354.560663 1180.10786,363.046616 1172.4569,365.867699 C1164.80595,368.688782 1156.32633,364.776729 1153.49979,357.129722 C1150.6846,349.482714 1154.60089,340.996761 1162.24049,338.175678 C1169.89145,335.354596 1178.37107,339.266648 1181.19761,346.913656" id="Fill-47" fill="#DDD6FF"></path>
        <path d="M1155.95495,436.052672 L1208.45709,436.052672 L1211.29107,438.252611 C1220.82049,445.661028 1226.39814,457.058245 1226.39814,469.131932 L1226.39814,480.42638 C1226.39814,489.158373 1219.31882,496.237026 1210.59105,496.237026 L1164.98758,496.237026 C1156.2598,496.237026 1149.18048,489.158373 1149.18048,480.42525 L1149.18048,464.959051 C1149.18048,454.930584 1151.49509,445.038766 1155.95495,436.052672" id="Fill-48" fill="#3F327A"></path>
        <path d="M1180.97599,357.849397 L1169.89221,386.83897 L1169.653,386.748796 C1167.61395,392.329393 1162.21445,396.308288 1155.88087,396.308288 C1147.78162,396.308288 1141.2316,389.814687 1141.2316,381.812938 C1141.2316,379.930572 1141.59613,378.138378 1142.25682,376.492716 L1142.17708,376.469046 L1153.26086,347.479473 L1180.97599,357.849397" id="Fill-49" fill="#DDD6FF"></path>
        <path d="M1227.75484,365.548078 C1220.28444,368.808605 1211.58791,365.394815 1208.32954,357.924666 C1205.07118,350.454517 1208.47714,341.755994 1215.94753,338.495466 C1223.41792,335.234939 1232.11446,338.647594 1235.38417,346.118879 C1238.64254,353.589028 1235.22523,362.287551 1227.75484,365.548078" id="Fill-50" fill="#DDD6FF"></path>
        <path d="M1232.16898,413.032541 C1231.39244,407.124366 1235.56068,401.711774 1241.47616,400.942136 C1247.38022,400.172497 1252.79322,404.335854 1253.55835,410.244029 C1254.3349,416.151062 1250.16666,421.564796 1244.2626,422.334435 C1238.34712,423.104073 1232.93411,418.938433 1232.16898,413.032541" id="Fill-51" fill="#FE95A9"></path>
        <polygon id="Fill-52" fill="#FE95A9" points="1252.51588 408.484252 1232.72754 415.612703 1209.36483 360.69681 1235.46197 352.021689"></polygon>
        <polyline id="Fill-53" fill="#DDD6FF" points="1208.22928 358.712011 1224.3088 396.308288 1246.83811 388.014705 1235.64649 348.615027 1208.22928 358.712011"></polyline>
        <polyline id="Fill-54" fill="#DDD6FF" points="1171.89156 366.382516 1133.97863 380.410534 1124.1983 358.351294 1159.97671 339.530596 1171.89156 366.382516"></polyline>
        <path d="M1165.07823,496.237026 C1156.3004,496.237026 1149.18048,489.118239 1149.18048,480.339272 C1149.18048,471.558034 1156.3004,464.441518 1165.07823,464.441518 C1173.85607,464.441518 1180.97599,471.558034 1180.97599,480.339272 C1180.97599,489.118239 1173.85607,496.237026 1165.07823,496.237026" id="Fill-55" fill="#3F327A"></path>
        <path d="M1226.39814,480.339272 C1226.39814,489.118239 1219.27822,496.237026 1210.50039,496.237026 C1201.7112,496.237026 1194.60263,489.118239 1194.60263,480.339272 C1194.60263,471.558034 1201.7112,464.441518 1210.50039,464.441518 C1219.27822,464.441518 1226.39814,471.558034 1226.39814,480.339272" id="Fill-56" fill="#3F327A"></path>
        <path d="M1133.28273,629.096824 L1148.04493,629.096824 L1148.04493,639.316809 L1127.36649,639.316809 C1125.61774,639.316809 1124.1983,637.899637 1124.1983,636.15202 C1124.1983,635.019873 1124.80014,633.972892 1125.78807,633.408522 L1133.28273,629.096824" id="Fill-57" fill="#7860DC"></path>
        <path d="M1126.4694,483.177579 C1126.4694,490.390236 1120.62697,496.237026 1113.41053,496.237026 C1106.19409,496.237026 1100.35167,490.390236 1100.35167,483.177579 C1100.35167,475.966077 1106.19409,470.119287 1113.41053,470.119287 C1120.62697,470.119287 1126.4694,475.966077 1126.4694,483.177579" id="Fill-58" fill="#3F327A"></path>
        <polyline id="Fill-59" fill="#3F327A" points="1100.35167 486.555499 1133.58492 630.232378 1148.04493 627.964755 1125.52154 482.61038 1100.35167 486.555499"></polyline>
        <path d="M1185.5182,628.529047 C1185.5182,632.605686 1182.21374,635.910147 1178.1371,635.910147 C1174.06046,635.910147 1170.756,632.605686 1170.756,628.529047 C1170.756,624.452409 1174.06046,621.147947 1178.1371,621.147947 C1182.21374,621.147947 1185.5182,624.452409 1185.5182,628.529047" id="Fill-60" fill="#392E65"></path>
        <path d="M1170.756,629.096824 L1185.5182,629.096824 L1185.5182,639.316809 L1164.82841,639.316809 C1163.07966,639.316809 1161.67157,637.899637 1161.67157,636.15202 C1161.67157,635.019873 1162.27342,633.972892 1163.24999,633.408522 L1170.756,629.096824" id="Fill-61" fill="#7860DC"></path>
        <path d="M1162.80713,483.177579 C1162.80713,490.390236 1156.95315,496.237026 1149.73671,496.237026 C1142.53182,496.237026 1136.68939,490.390236 1136.68939,483.177579 C1136.68939,475.966077 1142.53182,470.119287 1149.73671,470.119287 C1156.95315,470.119287 1162.80713,475.966077 1162.80713,483.177579" id="Fill-62" fill="#392E65"></path>
        <polyline id="Fill-63" fill="#3F327A" points="1137.82494 486.555499 1171.04693 630.232378 1185.5182 627.964755 1162.99482 482.61038 1137.82494 486.555499"></polyline>
        <polygon id="Fill-64" fill="#FE95A9" points="1173.02711 337.259489 1198.0093 337.259489 1198.0093 306.599535 1173.02711 306.599535"></polygon>
        <path d="M1198.0093,337.260057 C1198.0093,344.157724 1192.41101,349.750581 1185.5182,349.750581 C1178.61404,349.750581 1173.02711,344.157724 1173.02711,337.260057 C1173.02711,330.361253 1178.61404,324.768397 1185.5182,324.768397 C1192.41101,324.768397 1198.0093,330.361253 1198.0093,337.260057" id="Fill-65" fill="#FE95A9"></path>
        <path d="M1191.19597,303.760651 C1191.19597,313.482095 1199.07487,321.361735 1208.79706,321.361735 C1218.51924,321.361735 1226.39814,313.482095 1226.39814,303.760651 C1226.39814,294.04033 1218.51924,286.159566 1208.79706,286.159566 C1199.07487,286.159566 1191.19597,294.04033 1191.19597,303.760651" id="Fill-66" fill="#392E65"></path>
        <path d="M1141.24294,279.914587 C1141.24294,258.272815 1158.76812,240.737413 1180.40821,240.737413 C1202.0483,240.737413 1219.58482,258.272815 1219.58482,279.914587 C1219.58482,301.554092 1202.0483,319.090627 1180.40821,319.090627 L1160.43449,299.119973 C1149.83549,299.119973 1141.2316,290.520631 1141.2316,279.914587 L1141.24294,279.914587" id="Fill-67" fill="#392E65"></path>
        <path d="M1199.14485,299.786212 L1193.46708,299.786212 L1193.46708,288.430674 L1199.14485,288.430674 C1202.27898,288.430674 1204.82262,290.973179 1204.82262,294.108443 C1204.82262,297.244843 1202.27898,299.786212 1199.14485,299.786212" id="Fill-68" fill="#FE95A9"></path>
        <path d="M1155.97575,266.855151 L1199.14485,266.855151 L1199.14485,322.497289 L1172.32925,322.497289 C1161.60301,322.497289 1153.09322,313.457779 1153.7593,302.759706 L1155.97575,266.855151" id="Fill-69" fill="#FE95A9"></path>
        <path d="M1199.1193,288.430674 L1200.2804,288.430674 L1200.2804,255.499613 L1165.71452,255.499613 C1156.58829,255.499613 1149.18048,262.764421 1149.18048,271.726859 L1149.18048,272.372164 L1150.35319,272.372164 C1160.23413,272.372164 1169.84802,275.539402 1177.74349,281.391608 C1183.89731,285.960046 1191.398,288.430674 1199.1193,288.430674" id="Fill-70" fill="#392E65"></path>
        <polyline id="Fill-71" fill="#DED7FF" points="492.830364 467.84818 542.73792 639.316809 548.472502 639.316809 507.663724 467.84818 492.830364 467.84818"></polyline>
        <polyline id="Fill-72" fill="#DED7FF" points="440.594888 467.84818 390.687331 639.316809 384.95275 639.316809 425.761527 467.84818 440.594888 467.84818"></polyline>
        <path d="M550.74361,442.865995 C550.74361,489.274945 513.122711,526.896979 466.712626,526.896979 C420.303676,526.896979 382.681642,489.274945 382.681642,442.865995 C382.681642,396.457046 420.303676,358.835012 466.712626,358.835012 C513.122711,358.835012 550.74361,396.457046 550.74361,442.865995" id="Fill-73" fill="#FE95A9"></path>
        <path d="M467.213795,528.032533 C440.583404,528.032533 415.980374,515.837069 399.71495,494.572978 L401.513012,493.17921 C417.345948,513.877798 441.292867,525.747668 467.213795,525.747668 C501.20557,525.747668 531.383273,505.250149 544.095709,473.525949 L546.201394,474.380488 C533.14047,506.972937 502.136385,528.032533 467.213795,528.032533" id="Fill-74" fill="#392E65"></path>
        <path d="M393.132733,484.881487 C385.553234,472.063298 381.546088,457.438305 381.546088,442.58476 C381.546088,437.336045 382.043162,432.081645 383.020859,426.968242 L385.332312,427.382135 C384.380468,432.360227 383.89632,437.474768 383.89632,442.58476 C383.89632,457.042604 387.795356,471.277583 395.172734,483.75124 L393.132733,484.881487" id="Fill-75" fill="#392E65"></path>
        <path d="M508.728118,464.871855 C508.728118,470.345673 507.659526,475.557754 505.726967,480.339272 L428.833839,480.339272 C426.90128,475.557754 425.832688,470.345673 425.832688,464.871855 C425.832688,442.053137 444.385258,423.56158 467.280403,423.56158 C490.16418,423.56158 508.728118,442.053137 508.728118,464.871855" id="Fill-76" fill="#392E65"></path>
        <path d="M478.068164,465.577072 C478.068164,471.849871 472.98429,476.93261 466.712626,476.93261 C460.442098,476.93261 455.357088,471.849871 455.357088,465.577072 C455.357088,459.306544 460.442098,454.221534 466.712626,454.221534 C472.98429,454.221534 478.068164,459.306544 478.068164,465.577072" id="Fill-77" fill="#392E65"></path>
        <path d="M573.927415,406.345341 C577.902902,398.870896 575.0668,389.589641 567.59338,385.615331 C560.11996,381.639897 550.838582,384.477085 546.864219,391.949282 C542.888733,399.422603 545.724834,408.703858 553.198254,412.679292 C560.671674,416.653602 569.951929,413.818661 573.927415,406.345341" id="Fill-78" fill="#675B98"></path>
        <polyline id="Fill-79" fill="#DDD6FF" points="487.152595 378.358427 552.967907 413.341596 570.048025 387.633484 512.196233 340.66615 487.152595 378.358427"></polyline>
        <path d="M517.419868,368.361638 C511.53089,379.433356 497.78086,383.63634 486.709082,377.746259 C475.637304,371.858448 471.436568,358.108492 477.325546,347.036775 C483.214524,335.965058 496.963419,331.763209 508.035197,337.652155 C519.106974,343.541101 523.308846,357.291056 517.419868,368.361638" id="Fill-80" fill="#DDD6FF"></path>
        <polyline id="Fill-81" fill="#DDD6FF" points="448.543765 376.448651 387.729094 419.019365 367.919442 395.389499 419.497884 341.801704 448.543765 376.448651"></polyline>
        <path d="M417.383821,370.629085 C424.524642,380.940114 438.671165,383.508504 448.982151,376.368789 C459.292002,369.227939 461.862652,355.080221 454.721831,344.770327 C447.581011,334.459298 433.433352,331.889773 423.123501,339.030623 C412.812515,346.171474 410.243,360.318056 417.383821,370.629085" id="Fill-82" fill="#DDD6FF"></path>
        <path d="M456.492641,480.908172 C456.492641,489.373913 449.629277,496.237026 441.163226,496.237026 C432.694929,496.237026 425.832688,489.373913 425.832688,480.908172 C425.832688,472.441308 432.694929,465.577072 441.163226,465.577072 C449.629277,465.577072 456.492641,472.441308 456.492641,480.908172" id="Fill-83" fill="#392E65"></path>
        <path d="M492.262026,465.577072 C500.72858,465.577072 507.592564,472.441308 507.592564,480.908172 C507.592564,489.373913 500.72858,496.237026 492.262026,496.237026 C483.796595,496.237026 476.93261,489.373913 476.93261,480.908172 C476.93261,472.441308 483.796595,465.577072 492.262026,465.577072" id="Fill-84" fill="#392E65"></path>
        <path d="M514.386337,352.748648 L508.81558,465.577072 L425.744086,465.577072 L420.174468,352.748648 C419.727896,343.702132 426.989247,336.123935 436.104099,336.123935 L498.456706,336.123935 C507.571559,336.123935 514.832909,343.702132 514.386337,352.748648" id="Fill-85" fill="#DDD6FF"></path>
        <path d="M508.728118,465.577072 L507.966462,480.908172 L507.930084,481.659509 C507.524247,489.823143 500.705723,496.237026 492.430958,496.237026 L442.130984,496.237026 C433.857357,496.237026 427.037695,489.823143 426.631858,481.659509 L425.832688,465.577072 L508.728118,465.577072" id="Fill-86" fill="#3F327A"></path>
        <path d="M507.592564,627.392922 C507.592564,632.72368 503.270543,637.045701 497.939784,637.045701 C492.609026,637.045701 488.288149,632.72368 488.288149,627.392922 C488.288149,622.062163 492.609026,617.741286 497.939784,617.741286 C503.270543,617.741286 507.592564,622.062163 507.592564,627.392922" id="Fill-87" fill="#392E65"></path>
        <path d="M507.592564,483.178721 C507.592564,490.391052 501.745966,496.237026 494.53313,496.237026 C487.321423,496.237026 481.474826,490.391052 481.474826,483.178721 C481.474826,475.965261 487.321423,470.119287 494.53313,470.119287 C501.745966,470.119287 507.592564,475.965261 507.592564,483.178721" id="Fill-88" fill="#392E65"></path>
        <polyline id="Fill-89" fill="#3F327A" points="488.533277 627.96127 481.474826 483.745933 507.592564 483.745933 507.592564 627.96127 488.533277 627.96127"></polyline>
        <path d="M517.222277,639.316809 L488.288149,639.316809 L488.288149,627.96127 L507.542608,627.96127 L518.591407,633.963808 C519.51138,634.464587 520.083656,635.422995 520.083656,636.466569 C520.083656,638.040446 518.802305,639.316809 517.222277,639.316809" id="Fill-90" fill="#FE95A9"></path>
        <path d="M561.361492,494.527345 C566.381981,496.315558 569.002559,501.833405 567.215489,506.855034 C565.428419,511.874377 559.909426,514.496097 554.888937,512.709028 C549.868448,510.920816 547.246726,505.401826 549.033796,500.38134 C550.82201,495.360854 556.341003,492.740277 561.361492,494.527345" id="Fill-91" fill="#392E65"></path>
        <path d="M425.101785,445.897214 C431.894165,448.314115 435.439929,455.781558 433.021901,462.57394 C430.603872,469.367451 423.136432,472.913217 416.344053,470.495188 C409.551673,468.07603 406.00478,460.609715 408.423937,453.817333 C410.841966,447.024951 418.308277,443.478056 425.101785,445.897214" id="Fill-92" fill="#3F327A"></path>
        <polyline id="Fill-93" fill="#3F327A" points="554.520778 513.270333 415.612703 471.182723 424.442127 446.272657 560.963594 495.092501 554.520778 513.270333"></polyline>
        <path d="M562.707271,526.133838 L572.319132,498.918914 L561.682066,495.101472 L555.285825,513.210989 L557.239134,525.622797 C557.400593,526.655122 558.110784,527.516722 559.087439,527.866142 C560.562018,528.395393 562.183377,527.620296 562.707271,526.133838" id="Fill-94" fill="#FE95A9"></path>
        <polyline id="Fill-95" fill="#FE95A9" points="483.070209 336.123935 454.221534 334.510222 456.032812 304.328428 484.881487 305.943257 483.070209 336.123935"></polyline>
        <path d="M482.586112,336.377199 C482.133037,344.203237 475.42095,350.179505 467.594913,349.726431 C459.768877,349.273356 453.79261,342.561268 454.245684,334.73523 C454.699894,326.909192 461.411981,320.931789 469.238018,321.385999 C477.064055,321.839073 483.040322,328.551161 482.586112,336.377199" id="Fill-96" fill="#FE95A9"></path>
        <polyline id="Fill-97" fill="#3F327A" points="429.306541 490.559256 409.934934 466.822546 429.109998 448.543765 451.950426 469.009849 429.306541 490.559256"></polyline>
        <polyline id="Fill-98" fill="#DED7FF" points="341.801704 422.426026 340.608914 433.757241 318.012922 639.316809 312.277304 639.316809 329.237646 422.426026 341.801704 422.426026"></polyline>
        <polyline id="Fill-99" fill="#DED7FF" points="1332.00465 422.426026 1333.19744 433.757241 1355.79229 639.316809 1361.52905 639.316809 1344.56871 422.426026 1332.00465 422.426026"></polyline>
        <polygon id="Fill-100" fill="#7860DC" points="316.81952 433.781565 1354.71572 433.781565 1354.71572 422.426026 316.81952 422.426026"></polygon>
        <path d="M393.748128,408.908776 C392.121093,417.214742 384.066823,422.629576 375.759733,421.001418 C367.452643,419.37326 362.038932,411.320113 363.665967,403.013024 C365.294125,394.705934 373.348396,389.292224 381.654362,390.919259 C389.961452,392.547417 395.376286,400.600563 393.748128,408.908776" id="Fill-101" fill="#DDD6FF"></path>
        <polygon id="Fill-102" fill="#392E65" points="478.068164 422.426026 532.574748 422.426026 532.574748 415.612703 478.068164 415.612703"></polygon>
        <polyline id="Fill-103" fill="#C4B8FF" points="641.587916 344.072812 637.972438 422.426026 529.168087 422.426026 532.783565 344.072812 641.587916 344.072812"></polyline>
        <path d="M592.75034,382.681642 C592.546166,387.071693 588.825655,390.630519 584.439308,390.630519 C580.05523,390.630519 576.665935,387.071693 576.870109,382.681642 C577.074283,378.292727 580.794795,374.732765 585.180007,374.732765 C589.56522,374.732765 592.954515,378.292727 592.75034,382.681642" id="Fill-104" fill="#FFFFFE"></path>
        <polyline id="Fill-105" fill="#DDD6FF" points="638.181255 405.392719 637.383901 422.426026 528.032533 422.426026 638.181255 405.392719"></polyline>
        <polygon id="Fill-106" fill="#392E65" points="1120.79163 422.426026 1175.29822 422.426026 1175.29822 415.612703 1120.79163 415.612703"></polygon>
        <polyline id="Fill-107" fill="#C4B8FF" points="1125.33385 422.426026 1016.52964 422.426026 1016.51831 422.300204 1012.91402 344.072812 1121.71823 344.072812 1125.33385 422.426026"></polyline>
        <path d="M1060.61701,382.681642 C1060.80984,387.071693 1064.54168,390.630519 1068.92007,390.630519 C1073.3098,390.630519 1076.69001,387.071693 1076.49718,382.681642 C1076.28166,378.292727 1072.56117,374.732765 1068.18278,374.732765 C1063.79304,374.732765 1060.40149,378.292727 1060.61701,382.681642" id="Fill-108" fill="#FFFFFE"></path>
        <polyline id="Fill-109" fill="#DDD6FF" points="1125.33385 422.426026 1015.18513 422.426026 1015.97112 422.300781 1124.53646 405.392719 1125.33385 422.426026"></polyline>
        <path d="M499.228098,283.554098 L495.083409,283.888459 L492.830364,255.880054 L496.975052,255.545693 C504.699452,254.922775 511.466594,260.688201 512.088755,268.422002 C512.710916,276.155803 506.952498,282.93118 499.228098,283.554098" id="Fill-110" fill="#3F327A"></path>
        <path d="M467.84818,312.538916 L457.37637,313.378717 C451.59312,313.841183 446.526563,309.551294 446.060712,303.795779 L445.137103,292.380234 L466.080722,290.701782 L467.84818,312.538916" id="Fill-111" fill="#3F327A"></path>
        <path d="M496.369174,281.859655 L485.428647,282.752905 L482.61038,247.254113 L492.392013,246.455602 C499.068437,245.909727 504.918511,250.956815 505.455694,257.728371 L506.421068,269.880857 C506.907091,276.003905 502.407205,281.366788 496.369174,281.859655" id="Fill-112" fill="#392E65"></path>
        <path d="M495.720142,320.683596 L458.782363,323.632843 L455.432422,282.390082 C454.413774,269.844967 463.844598,258.856463 476.496741,257.845292 C488.718226,256.869422 499.560459,265.579378 501.134942,277.635988 L505.233653,309.039198 C505.999649,314.902391 501.664364,320.208756 495.720142,320.683596" id="Fill-113" fill="#FE95A9"></path>
        <path d="M462.831573,254.614267 L465.889632,254.364059 L468.983734,293.328018 L445.518344,295.243997 L444.068723,276.981069 C443.160879,265.549174 451.561248,255.535126 462.831573,254.614267" id="Fill-114" fill="#3F327A"></path>
        <path d="M457.312357,298.630131 L463.305964,298.129609 L462.822947,291.903446 C462.556074,288.465082 459.656866,285.902917 456.346322,286.180094 C453.035777,286.456125 450.567756,289.468416 450.834629,292.906779 C451.101502,296.345142 454.001812,298.907307 457.312357,298.630131" id="Fill-115" fill="#FE95A9"></path>
        <path d="M504.185902,270.582731 L480.841444,272.476071 C471.326507,273.247306 462.963182,266.080635 462.197326,256.498871 C461.833064,251.939816 465.208712,247.9458 469.735971,247.577841 C474.26323,247.21102 478.22939,250.610376 478.594783,255.169432 C478.632114,255.645615 479.047283,256.002183 479.521276,255.96345 L502.865735,254.071248 L504.185902,270.582731" id="Fill-116" fill="#3F327A"></path>
        <path d="M494.262159,262.50554 L482.513947,263.422112 C477.934581,263.778987 473.922773,260.472901 473.553174,256.03634 C473.18472,251.600888 476.599219,247.715156 481.178585,247.357172 L492.926797,246.441709 C497.506162,246.083725 501.51797,249.390919 501.887569,253.826372 C502.256024,258.262933 498.841524,262.148665 494.262159,262.50554" id="Fill-117" fill="#3F327A"></path>
        <path d="M506.387931,317.426798 C506.991196,322.140515 503.57307,326.41157 498.879372,326.793609 L482.577629,328.12045 C473.518464,328.858219 465.582074,322.034139 464.853176,312.877792 L463.305964,293.472742 L469.454063,292.972889 C469.758526,296.788701 473.065732,299.633402 476.841516,299.325712 L503.782459,297.132993 L506.387931,317.426798" id="Fill-118" fill="#3F327A"></path>
        <path d="M493.598494,410.791726 C492.18965,405.976862 487.145741,403.216916 482.332287,404.624704 C477.517697,406.032493 474.756773,411.07669 476.164481,415.891553 C477.572189,420.705281 482.616099,423.466363 487.430688,422.058575 C492.245277,420.650786 495.006202,415.606589 493.598494,410.791726" id="Fill-119" fill="#FE95A9"></path>
        <path d="M475.521467,413.700081 C476.577313,417.310263 474.506492,421.094143 470.896178,422.149951 C467.284729,423.206894 463.501847,421.136148 462.446001,417.52483 C461.390154,413.913513 463.460976,410.130768 467.071289,409.07496 C470.682738,408.019152 474.46562,410.089898 475.521467,413.700081" id="Fill-120" fill="#E98B9C"></path>
        <polyline id="Fill-121" fill="#FE95A9" points="484.881487 422.417919 468.665831 422.426026 466.712626 408.805461 482.277987 404.257165 484.881487 422.417919"></polyline>
        <polyline id="Fill-122" fill="#DDD6FF" points="382.241005 391.766073 470.119287 408.933968 468.81319 422.419221 464.198616 422.419221 457.382562 422.416953 379.274981 422.426026 382.241005 391.766073"></polyline>
        <polyline id="Fill-123" fill="#FE95A9" points="470.386374 422.426026 472.390395 408.830076 463.311201 407.663826 463.305964 422.426026 470.386374 422.426026"></polyline>
        <polygon id="Fill-124" fill="#DDD6FF" points="414.477149 405.392719 426.968242 405.392719 426.968242 392.901627 414.477149 392.901627"></polygon>
        <polyline id="Fill-125" fill="#3F327A" points="1163.21685 464.441518 1111.7072 470.552226 1113.20759 496.237026 1165.07823 496.237026 1163.21685 464.441518"></polyline>
        <path d="M1159.71859,414.887844 C1158.68527,417.848606 1160.25228,421.082967 1163.21598,422.110379 C1166.17969,423.138926 1169.41591,421.571129 1170.43788,418.609232 C1171.4712,415.648469 1169.90418,412.414109 1166.94048,411.386697 C1163.97678,410.357015 1160.74056,411.924811 1159.71859,414.887844" id="Fill-126" fill="#E98B9C"></path>
        <path d="M1147.80483,421.936033 C1148.67154,422.230255 1149.56137,422.364919 1150.42808,422.368313 L1150.42808,422.375103 L1164.29547,422.426026 L1166.21379,411.422101 L1153.10911,406.968023 C1148.89111,405.534254 1144.2802,407.721686 1142.81257,411.854382 C1141.3565,415.988209 1143.58683,420.501132 1147.80483,421.936033" id="Fill-127" fill="#FE95A9"></path>
        <polyline id="Fill-128" fill="#FE95A9" points="1242.29589 422.385964 1164.67601 422.426026 1163.94268 411.026449 1240.93078 400.850503 1242.29589 422.385964"></polyline>
        <polyline id="Fill-129" fill="#DED7FF" points="808.51433 467.84818 858.420868 639.316809 864.156468 639.316809 823.347387 467.84818 808.51433 467.84818"></polyline>
        <polyline id="Fill-130" fill="#DED7FF" points="756.278854 467.84818 706.372199 639.316809 700.636716 639.316809 741.444963 467.84818 756.278854 467.84818"></polyline>
        <path d="M759.685515,464.871855 C759.685515,470.345673 760.754121,475.557754 762.698075,480.339272 L839.569521,480.339272 C841.513476,475.557754 842.580945,470.345673 842.580945,464.871855 C842.580945,442.053137 824.029257,423.56158 801.133798,423.56158 C778.249708,423.56158 759.685515,442.053137 759.685515,464.871855" id="Fill-131" fill="#9E91BA"></path>
        <path d="M789.209915,465.577072 C789.209915,471.849871 794.293789,476.93261 800.565453,476.93261 C806.837117,476.93261 811.920991,471.849871 811.920991,465.577072 C811.920991,459.306544 806.837117,454.221534 800.565453,454.221534 C794.293789,454.221534 789.209915,459.306544 789.209915,465.577072" id="Fill-132" fill="#392E65"></path>
        <path d="M699.955559,414.684645 C695.138069,407.723081 696.875377,398.174669 703.83697,393.356075 C710.797439,388.538606 720.34589,390.275906 725.164503,397.236347 C729.981993,404.197911 728.244685,413.746323 721.283092,418.564916 C714.322623,423.382386 704.774172,421.645085 699.955559,414.684645" id="Fill-133" fill="#E98B9C"></path>
        <polyline id="Fill-134" fill="#E98B9C" points="782.396592 376.460219 721.574042 419.019365 701.77227 395.381352 753.361365 341.801704 782.396592 376.460219"></polyline>
        <path d="M751.233389,370.623388 C758.370846,380.936647 772.517456,383.509569 782.82964,376.372153 C793.14296,369.234737 795.715896,355.088211 788.577303,344.774952 C781.439845,334.462829 767.293236,331.888772 756.981052,339.027323 C746.668867,346.164739 744.094795,360.311265 751.233389,370.623388" id="Fill-135" fill="#F6BE5D"></path>
        <path d="M774.61904,421.89992 C773.653988,416.977132 776.863637,412.205343 781.786537,411.241448 C786.709437,410.277554 791.481334,413.48713 792.445251,418.409918 C793.410303,423.332705 790.200654,428.104494 785.277754,429.068389 C780.354854,430.032283 775.582957,426.822708 774.61904,421.89992" id="Fill-136" fill="#E98B9C"></path>
        <path d="M792.744534,416.921773 C793.466584,420.613963 797.046181,423.020925 800.738173,422.297701 C804.430165,421.575612 806.838134,417.996959 806.114949,414.303634 C805.391763,410.611444 801.813301,408.204481 798.121309,408.927706 C794.429317,409.65093 792.022484,413.229583 792.744534,416.921773" id="Fill-137" fill="#E98B9C"></path>
        <polyline id="Fill-138" fill="#E98B9C" points="788.440993 429.239349 802.836561 421.794312 798.304129 408.79938 782.396592 411.91316 788.440993 429.239349"></polyline>
        <path d="M873.529183,408.905509 C875.156162,417.211705 883.209035,422.628936 891.515843,421.001856 C899.82265,419.3759 905.238424,411.322531 903.612568,403.016335 C901.986712,394.707891 893.933839,389.292907 885.625908,390.918863 C877.3191,392.544819 871.903327,400.597065 873.529183,408.905509" id="Fill-139" fill="#E98B9C"></path>
        <polyline id="Fill-140" fill="#E98B9C" points="818.734314 376.412429 879.525916 419.019365 899.358637 395.414976 847.815232 341.801704 818.734314 376.412429"></polyline>
        <polyline id="Fill-141" fill="#FFC359" points="818.734314 377.193036 869.770205 412.206042 891.40976 386.986205 848.144344 342.937258 818.734314 377.193036"></polyline>
        <polyline id="Fill-142" fill="#FFC359" points="782.396592 377.236939 731.329118 412.206042 709.721146 386.955408 753.029514 342.937258 782.396592 377.236939"></polyline>
        <path d="M849.883265,370.644161 C842.73448,380.94848 828.585654,383.506676 818.280321,376.358942 C807.976124,369.208937 805.417958,355.059943 812.566743,344.754488 C819.716664,334.450169 833.86549,331.891973 844.169687,339.040843 C854.475019,346.190848 857.033185,360.339842 849.883265,370.644161" id="Fill-143" fill="#FFC359"></path>
        <path d="M826.115976,496.237026 C834.58253,496.237026 841.445391,489.373661 841.445391,480.90761 C841.445391,472.440436 834.58253,465.577072 826.115976,465.577072 C817.649422,465.577072 810.785438,472.440436 810.785438,480.90761 C810.785438,489.373661 817.649422,496.237026 826.115976,496.237026" id="Fill-144" fill="#9E91BA"></path>
        <path d="M759.685515,480.908172 C759.685515,489.373913 766.549751,496.237026 775.016615,496.237026 C783.482356,496.237026 790.345469,489.373913 790.345469,480.908172 C790.345469,472.441308 783.482356,465.577072 775.016615,465.577072 C766.549751,465.577072 759.685515,472.441308 759.685515,480.908172" id="Fill-145" fill="#9E91BA"></path>
        <path d="M754.027298,352.748648 L759.596916,465.577072 L842.668408,465.577072 L848.239165,352.748648 C848.685737,343.702132 841.424386,336.123935 832.309534,336.123935 L769.956929,336.123935 C760.840938,336.123935 753.580726,343.702132 754.027298,352.748648" id="Fill-146" fill="#FFC359"></path>
        <path d="M759.685515,465.577072 L760.484685,481.659509 C760.890523,489.823143 767.709047,496.237026 775.982675,496.237026 L826.282649,496.237026 C834.55855,496.237026 841.377074,489.823143 841.781775,481.659509 L842.580945,465.577072 L759.685515,465.577072" id="Fill-147" fill="#9E91BA"></path>
        <path d="M972.601859,549.592114 C964.766553,549.592114 958.391417,555.966341 958.391417,563.801915 C958.391417,571.637489 964.766553,578.012843 972.601859,578.012843 C980.437165,578.012843 986.812301,571.637489 986.812301,563.801915 C986.812301,555.966341 980.437165,549.592114 972.601859,549.592114 Z M972.601859,580.268009 C963.522872,580.268009 956.136328,572.881213 956.136328,563.801915 C956.136328,554.722617 963.522872,547.336948 972.601859,547.336948 C981.680846,547.336948 989.06739,554.722617 989.06739,563.801915 C989.06739,572.881213 981.680846,580.268009 972.601859,580.268009 L972.601859,580.268009 Z" id="Fill-148" fill="#3F327A"></path>
        <polygon id="Fill-149" fill="#FE95A9" points="918.663052 639.316809 1027.67622 639.316809 1027.67622 564.370256 918.663052 564.370256"></polygon>
        <polygon id="Fill-150" fill="#3F327A" points="1016.32068 639.316809 1027.67622 639.316809 1027.67622 564.370256 1016.32068 564.370256"></polygon>
        <polygon id="Fill-151" fill="#3F327A" points="918.663052 602.979086 1016.32068 602.979086 1016.32068 600.707978 918.663052 600.707978"></polygon>
        <polygon id="Fill-152" fill="#FFFFFE" points="959.54299 610.927963 975.440744 610.927963 975.440744 600.707978 959.54299 600.707978"></polygon>
        <polyline id="Fill-153" fill="#FFFFFE" points="1223.13415 396.308288 1211.63594 369.978621 1213.76438 369.054996 1225.26259 395.383507 1223.13415 396.308288"></polyline>
        <polyline id="Fill-154" fill="#FFFFFE" points="464.006378 408.79938 406.528273 397.416222 406.963413 395.172734 464.441518 406.557035 464.006378 408.79938"></polyline>
        <polyline id="Fill-155" fill="#7760DA" points="480.814882 491.69481 440.594888 479.191385 441.254832 476.93261 481.474826 489.438393 480.814882 491.69481"></polyline>
        <path d="M157.821901,267.470996 C154.472708,282.919619 148.860733,297.793467 144.379579,312.95527 C139.767464,328.561474 135.115492,344.437493 135.171293,360.704631 C135.245314,381.863587 143.679221,402.883101 158.271724,418.268238 C163.989608,424.297135 170.665217,429.565334 175.068932,436.60207 C179.472648,443.63994 181.096568,453.30454 176.178118,459.995504 C169.082294,469.647634 153.903311,467.555999 143.526623,473.584896 C130.461242,481.178268 128.646004,500.529009 136.094854,513.636587 C143.543704,526.744166 177.462677,564.246217 225.861412,554.960265 C247.523547,550.804203 276.886206,530.280106 276.048054,508.335512 C275.176876,485.481708 253.256235,466.973289 254.002145,444.117218 C254.491826,429.143606 264.603176,416.488364 273.357084,404.302465 C282.109853,392.116566 290.265894,377.268792 286.235703,362.834811 C280.303726,341.586294 252.814383,335.023435 239.503023,317.394751 C230.931322,306.043238 229.044341,291.111572 228.512524,276.920198 C227.979569,262.728823 228.342844,248.184875 223.587241,234.79501 C212.053538,202.319686 171.104791,206.193462 157.821901,267.470996" id="Fill-156" fill="#C4B8FF"></path>
        <polygon id="Fill-157" fill="#362971" points="206.670798 596.165763 208.941905 596.165763 208.941905 349.750581 206.670798 349.750581"></polygon>
        <path d="M209.00862,421.290473 L206.806352,420.91818 C210.414324,398.404201 235.349941,384.402555 236.409796,383.817196 L237.466305,385.836741 C237.217518,385.974203 212.435859,399.8991 209.00862,421.290473" id="Fill-158" fill="#392E65"></path>
        <path d="M206.717451,517.812548 C204.256351,502.608575 186.411129,492.677251 186.230829,492.577595 L187.299108,490.559256 C188.073273,490.983084 206.298252,501.114867 208.941905,517.440267 L206.717451,517.812548" id="Fill-159" fill="#392E65"></path>
        <path d="M220.584739,639.316809 L195.027964,639.316809 C179.50835,639.316809 166.926414,626.872617 166.926414,611.520401 L166.926414,588.216886 L248.68629,588.216886 L248.68629,611.520401 C248.68629,626.872617 236.104353,639.316809 220.584739,639.316809" id="Fill-160" fill="#FFC359"></path>
        <path d="M181.746418,637.045701 C171.904282,632.043279 165.79086,622.262308 165.79086,611.519806 L165.79086,602.979086 L168.106112,602.979086 L168.106112,611.519806 C168.106112,621.428384 173.744907,630.44931 182.824167,635.063314 L181.746418,637.045701" id="Fill-161" fill="#362971"></path>
        <polygon id="Fill-162" fill="#FFFFFE" points="166.926414 597.301317 248.68629 597.301317 248.68629 595.030209 166.926414 595.030209"></polygon>
        <polygon id="Fill-163" fill="#C4B9FF" points="32.9310612 641.587916 1445.56003 641.587916 1445.56003 639.316809 32.9310612 639.316809"></polygon>
        <polyline id="Fill-164" fill="#C4B9FF" points="763.092177 658.053447 1238.88923 658.053447 763.092177 658.053447"></polyline>
        <polygon id="Fill-165" fill="#C4B9FF" points="763.092177 658.621224 1238.88923 658.621224 1238.88923 656.350116 763.092177 656.350116"></polygon>
        <polyline id="Fill-166" fill="#C4B9FF" points="1125.33385 675.086754 1332.00465 675.086754 1125.33385 675.086754"></polyline>
        <polygon id="Fill-167" fill="#C4B9FF" points="1125.33385 675.654531 1332.00465 675.654531 1332.00465 673.383424 1125.33385 673.383424"></polygon>
        <polyline id="Fill-168" fill="#C4B9FF" points="681.332301 675.086754 1060.60728 675.086754 681.332301 675.086754"></polyline>
        <polygon id="Fill-169" fill="#C4B9FF" points="681.332301 675.654531 1060.60728 675.654531 1060.60728 673.383424 681.332301 673.383424"></polygon>
        <polyline id="Fill-170" fill="#C4B9FF" points="1307.02246 658.053447 1350.17351 658.053447 1307.02246 658.053447"></polyline>
        <polygon id="Fill-171" fill="#C4B9FF" points="1307.02246 658.621224 1350.17351 658.621224 1350.17351 656.350116 1307.02246 656.350116"></polygon>
        <polyline id="Fill-172" fill="#C4B9FF" points="579.132455 658.053447 725.6189 658.053447 579.132455 658.053447"></polyline>
        <polygon id="Fill-173" fill="#C4B9FF" points="579.132455 658.621224 725.6189 658.621224 725.6189 656.350116 579.132455 656.350116"></polygon>
        <path d="M1155.87195,397.443842 C1147.17585,397.443842 1140.09605,390.475807 1140.09605,381.912005 C1140.09605,380.359942 1140.33508,378.838135 1140.79037,377.374601 L1140.75622,377.365636 L1141.12046,376.20355 L1147.7905,358.835012 L1149.91899,359.628413 L1143.68148,375.855036 L1143.70425,375.86176 L1143.31725,377.035053 C1142.69122,378.589357 1142.37251,380.228829 1142.37251,381.912005 C1142.37251,389.23976 1148.42791,395.202596 1155.87195,395.202596 C1156.89635,395.202596 1157.90938,395.089413 1158.89964,394.867529 L1159.40046,397.052744 C1158.25085,397.312729 1157.06709,397.443842 1155.87195,397.443842" id="Fill-174" fill="#FFFFFE"></path>
        <polygon id="Fill-175" fill="#362971" points="196.450813 589.35244 248.68629 589.35244 248.68629 587.081332 196.450813 587.081332"></polygon>
        <path d="M984.696704,95.3836476 C979.951388,84.5159295 978.429262,76.1842764 981.79855,69.318786 C991.792028,48.9623351 1042.72773,45.7005479 1075.35037,65.5067632 C1120.84424,93.1260968 1132.87175,166.906343 1112.04446,183.287739 C1087.81956,202.347853 1009.19681,151.492955 984.696704,95.3836476" id="Fill-176" fill="#F8F7FF"></path>
        <path d="M500.75446,302.05732 C501.059348,305.501667 498.515575,308.541935 495.073062,308.845848 C491.630549,309.1509 488.593038,306.605771 488.288149,303.161423 L500.75446,302.05732" id="Fill-177" fill="#FFFFFE"></path>
        <path d="M1173.02711,304.328428 C1173.03843,308.083785 1170.24498,311.134318 1166.7929,311.141751 C1163.34083,311.149156 1160.54737,308.109752 1160.53602,304.353158 L1173.02711,304.328428" id="Fill-178" fill="#FFFFFE"></path>
        <polyline id="Fill-179" fill="#FFFFFE" points="531.659261 383.817196 529.168087 383.712824 531.219128 344.072812 533.710302 344.176061 531.659261 383.817196"></polyline>
        <polygon id="Fill-180" fill="#FFFFFE" points="875.512006 357.699458 907.307514 357.699458 907.307514 355.42835 875.512006 355.42835"></polygon>
        <polygon id="Fill-181" fill="#FFFFFE" points="883.460883 364.512781 918.663052 364.512781 918.663052 362.241673 883.460883 362.241673"></polygon>
        <polygon id="Fill-182" fill="#FFFFFE" points="893.680868 371.326104 925.476375 371.326104 925.476375 369.054996 893.680868 369.054996"></polygon>
        <polygon id="Fill-183" fill="#FFFFFE" points="898.223083 378.139427 907.307514 378.139427 907.307514 375.868319 898.223083 375.868319"></polygon>
        <polygon id="Fill-184" fill="#FFFFFE" points="912.985283 378.139427 925.476375 378.139427 925.476375 375.868319 912.985283 375.868319"></polygon>
        <polygon id="Fill-185" fill="#FFFFFE" points="914.120837 357.699458 925.476375 357.699458 925.476375 355.42835 914.120837 355.42835"></polygon>
        <polyline id="Fill-186" fill="#FAF8FA" points="316.81952 433.213788 580.268009 433.213788 316.81952 433.213788"></polyline>
        <polygon id="Fill-187" fill="#3F327A" points="316.81952 434.917119 580.268009 434.917119 580.268009 432.646011 316.81952 432.646011"></polygon>
        <polyline id="Fill-188" fill="#FAF8FA" points="598.436871 433.213788 615.470178 433.213788 598.436871 433.213788"></polyline>
        <polygon id="Fill-189" fill="#3F327A" points="598.436871 434.917119 615.470178 434.917119 615.470178 432.646011 598.436871 432.646011"></polygon>
        <polyline id="Fill-190" fill="#FAF8FA" points="632.503486 433.213788 701.77227 433.213788 632.503486 433.213788"></polyline>
        <polygon id="Fill-191" fill="#3F327A" points="632.503486 434.917119 701.77227 434.917119 701.77227 432.646011 632.503486 432.646011"></polygon>
        <polyline id="Fill-192" fill="#FAF8FA" points="905.036406 433.213788 832.36096 433.213788 905.036406 433.213788"></polyline>
        <polygon id="Fill-193" fill="#3F327A" points="832.36096 434.917119 905.036406 434.917119 905.036406 432.646011 832.36096 432.646011"></polygon>
        <polyline id="Fill-194" fill="#FAF8FA" points="1086.72502 433.213788 1297.93803 433.213788 1086.72502 433.213788"></polyline>
        <polygon id="Fill-195" fill="#3F327A" points="1086.72502 434.917119 1297.93803 434.917119 1297.93803 432.646011 1086.72502 432.646011"></polygon>
        <polyline id="Fill-196" fill="#FAF8FA" points="1307.02246 433.213788 1354.71572 433.213788 1307.02246 433.213788"></polyline>
        <polygon id="Fill-197" fill="#3F327A" points="1307.02246 434.917119 1354.71572 434.917119 1354.71572 432.646011 1307.02246 432.646011"></polygon>
        <path d="M866.427576,442.865995 C866.427576,489.274945 828.805541,526.896979 782.396592,526.896979 C735.987642,526.896979 698.365608,489.274945 698.365608,442.865995 C698.365608,396.457046 735.987642,358.835012 782.396592,358.835012 C828.805541,358.835012 866.427576,396.457046 866.427576,442.865995" id="Fill-198" fill="#FF809F"></path>
        <path d="M857.489227,482.61038 L855.497283,481.538639 C861.91175,469.61835 865.302126,456.115322 865.302126,442.489067 C865.302126,396.983049 828.280449,359.960514 782.775487,359.960514 C774.747793,359.960514 766.8128,361.111392 759.194347,363.379231 L758.549961,361.212009 C766.377556,358.88086 774.528475,357.699458 782.775487,357.699458 C829.528523,357.699458 867.563129,395.736076 867.563129,442.489067 C867.563129,456.488397 864.080053,470.362238 857.489227,482.61038" id="Fill-199" fill="#FFFFFE"></path>
        <path d="M796.023238,389.494965 L768.769946,389.494965 C765.634682,389.494965 763.092177,386.953596 763.092177,383.817196 C763.092177,380.681932 765.634682,378.139427 768.769946,378.139427 L796.023238,378.139427 C799.159637,378.139427 801.701007,380.681932 801.701007,383.817196 C801.701007,386.953596 799.159637,389.494965 796.023238,389.494965" id="Fill-200" fill="#FFC359"></path>
        <polygon id="Fill-201" fill="#362971" points="208.941905 641.587916 267.990705 641.587916 267.990705 639.316809 208.941905 639.316809"></polygon>
        <polygon id="Fill-202" fill="#392E65" points="278.210689 641.587916 292.972889 641.587916 292.972889 639.316809 278.210689 639.316809"></polygon>
        <polygon id="Fill-203" fill="#362971" points="461.034857 641.587916 598.436871 641.587916 598.436871 639.316809 461.034857 639.316809"></polygon>
        <polygon id="Fill-204" fill="#362971" points="811.920991 641.587916 908.443067 641.587916 908.443067 639.316809 811.920991 639.316809"></polygon>
        <polygon id="Fill-205" fill="#362971" points="943.645236 641.587916 1036.76065 641.587916 1036.76065 639.316809 943.645236 639.316809"></polygon>
        <polygon id="Fill-206" fill="#362971" points="1046.98064 641.587916 1066.28505 641.587916 1066.28505 639.316809 1046.98064 639.316809"></polygon>
        <polygon id="Fill-207" fill="#362971" points="1141.2316 641.587916 1227.53369 641.587916 1227.53369 639.316809 1141.2316 639.316809"></polygon>
        <polygon id="Fill-208" fill="#362971" points="1240.02479 641.587916 1255.92254 641.587916 1255.92254 639.316809 1240.02479 639.316809"></polygon>
        <polygon id="Fill-209" fill="#362971" points="423.56158 641.587916 439.459334 641.587916 439.459334 639.316809 423.56158 639.316809"></polygon>
        <polyline id="Fill-210" fill="#392E65" points="1124.29238 422.426026 1120.79163 344.179045 1122.9796 344.072812 1126.4694 422.319793 1124.29238 422.426026"></polyline>
    </g>
</svg>