<?xml version="1.0" encoding="UTF-8"?>
<svg width="489px" height="174px" viewBox="0 0 489 174" version="1.1" xmlns="http://www.w3.org/2000/svg" xmlns:xlink="http://www.w3.org/1999/xlink">
    <!-- Generator: Sketch 57.1 (83088) - https://sketch.com -->
    <title>Combined Shape Copy 2</title>
    <desc>Created with Sketch.</desc>
    <g id="Page-1" stroke="none" stroke-width="1" fill="none" fill-rule="evenodd">
        <path d="M91.1454699,103.651262 C108.515806,103.651262 125.886142,118.014129 125.886142,138.825631 C125.886142,159.637133 108.515806,174 91.1454699,174 C73.7751341,174 56.4047983,159.637133 56.4047983,138.825631 C56.4047983,118.014129 73.7751341,103.651262 91.1454699,103.651262 Z M142.18303,104.628327 L142.18303,147.814636 C142.18303,161.493558 150.087508,168.137605 160.334055,168.137605 C170.580601,168.137605 178.48508,161.493558 178.48508,147.814636 L178.485,144.587085 L184.105637,153.632032 C182.008785,166.943201 172.459782,174 160.334055,174 C146.671993,174 136.132688,164.913288 136.132688,147.912343 L136.132688,104.628327 L142.18303,104.628327 Z M242.107025,103.651262 C254.598053,103.651262 261.721842,111.272375 265.430116,117.721009 L253.91495,124.658177 C250.10909,119.772847 247.181505,117.525596 242.204611,117.525596 C237.520475,117.525596 234.592891,119.968261 234.592891,123.681111 C234.592891,126.710015 236.6422,128.56644 241.423922,130.227452 L246.010471,131.888464 C261.917015,137.457739 267.381839,144.00408 267.381839,153.188498 C267.381839,167.355952 253.91495,174 242.399783,174 C229.713583,174 219.954967,166.769713 216.734624,157.096761 L228.737721,150.648127 C231.177375,155.044923 234.788063,159.832546 242.399783,159.832546 C247.474263,159.832546 251.084951,157.878414 251.084951,152.895378 C251.084951,149.084822 248.742883,147.326103 241.423922,144.688026 L237.618062,143.320134 C227.664274,139.70499 218.979106,134.917368 218.979106,123.192578 C218.979106,110.881549 229.615997,103.651262 242.107025,103.651262 Z M6.92861709,104.628327 L28.2999853,136.578379 L49.6713535,104.628327 L56.5999706,104.628327 L31.3251561,142.245361 L31.3251561,173.022934 L25.2748145,173.022934 L25.2748145,142.245361 L0,104.628327 L6.92861709,104.628327 Z M292.363895,104.628327 L292.363895,131.497637 L318.224227,131.497637 L318.224227,104.628327 L333.935598,104.628327 L333.935598,173.022934 L318.224227,173.022934 L318.224227,145.958211 L292.363895,145.958211 L292.363895,173.022934 L276.652524,173.022934 L276.652524,104.628327 L292.363895,104.628327 Z M361.357308,104.628327 L361.357308,173.022934 L345.645937,173.022934 L345.645937,104.628327 L361.357308,104.628327 Z M388.779018,104.628327 L417.176589,147.521516 L417.859692,147.521516 L417.859692,104.628327 L433.571063,104.628327 L433.571063,173.022934 L417.859692,173.022934 L389.462121,130.129745 L388.779018,130.129745 L388.779018,173.022934 L373.067646,173.022934 L373.067646,104.628327 L388.779018,104.628327 Z M488.121725,104.628327 L488.121725,119.088901 L460.992773,119.088901 L460.992773,131.497637 L481.290694,131.497637 L481.290694,145.665091 L460.992773,145.665091 L460.992773,158.56236 L489,158.56236 L489,173.022934 L445.281402,173.022934 L445.281402,104.628327 L488.121725,104.628327 Z M91.1454699,109.513656 C77.0930634,109.513656 62.6503123,121.336153 62.6503123,138.825631 C62.6503123,156.315109 77.0930634,168.137605 91.1454699,168.137605 C105.197876,168.137605 119.640628,156.315109 119.640628,138.825631 C119.640628,121.336153 105.197876,109.513656 91.1454699,109.513656 Z M163.416114,104.627817 L184.763122,104.628327 L184.763114,138.983817 L163.416114,104.627817 Z M194.478086,5.5650172e-10 C212.19005,1.62303357 226.440869,15.3093124 226.440869,35.0123883 C226.440869,56.0193032 210.241567,70.1867575 190.919508,70.1867575 C171.597449,70.1867575 155.398147,56.0193032 155.398147,35.0123883 C155.398147,15.3093893 169.648854,1.62314034 187.360722,1.89943004e-05 L194.478086,5.5650172e-10 Z M23.2339626,0.815084847 C36.7984384,0.815084847 42.7511939,8.43619818 42.7511939,17.0343773 C42.7511939,23.6784248 39.2380923,29.2477 31.7239582,31.7880711 C41.2874015,33.8399093 46.9473986,40.8747831 46.9473986,50.4500281 C46.9473986,61.6862849 39.3356784,69.2096917 22.4532734,69.2096917 L0.984319029,69.2096917 L0.984319029,0.815084847 L23.2339626,0.815084847 Z M106.182,28.2190848 L112.232,37.9560848 L112.232537,69.2096917 L106.182195,69.2096917 L106.182,28.2190848 Z M261.083954,0.815084848 C276.404981,0.815084848 286.553941,10.0972101 286.553941,24.3623709 C286.553941,33.449083 282.26015,40.2885436 275.038774,43.8059806 L291.433249,69.2096917 L274.843602,69.2096917 L260.888782,46.8348846 L252.496372,46.8348846 L252.496372,69.2096917 L236.785001,69.2096917 L236.785001,0.815084848 L261.083954,0.815084848 Z M343.056325,0.815084848 L343.056325,15.2756589 L315.927374,15.2756589 L315.927374,27.6843947 L336.225294,27.6843947 L336.225294,41.8518489 L315.927374,41.8518489 L315.927374,54.7491177 L343.934601,54.7491177 L343.934601,69.2096917 L300.216003,69.2096917 L300.216003,0.815084848 L343.056325,0.815084848 Z M95.0573736,0.815084847 L95.0573736,6.57977314 L62.2684251,6.57977314 L62.2684251,32.0811908 L88.0311704,32.0811908 L88.0311704,37.650466 L62.2684251,37.650466 L62.2684251,63.4450034 L95.935649,63.4450034 L95.935649,69.2096917 L56.2180834,69.2096917 L56.2180834,0.815084847 L95.0573736,0.815084847 Z M22.7460319,34.8169751 L7.03466071,34.8169751 L7.03466071,63.7381231 L22.3556872,63.7381231 C35.4322322,63.7381231 40.8970569,58.4619677 40.8970569,49.766082 C40.8970569,40.7770766 34.8467152,34.8169751 22.7460319,34.8169751 Z M190.919508,14.5917128 C179.892272,14.5917128 171.792621,22.9944788 171.792621,35.0123883 C171.792621,47.0302977 179.892272,55.4330637 190.919508,55.4330637 C201.946743,55.4330637 210.14398,47.0302977 210.14398,35.0123883 C210.14398,22.9944788 201.946743,14.5917128 190.919508,14.5917128 Z M149.542977,0.815084848 L149.542977,15.1779523 L121.828509,15.1779523 L121.828509,28.1729276 L144.566084,28.1729276 L144.566084,41.5587292 L124.229114,41.5578166 L106.117114,12.4078166 L106.117138,0.815084848 L149.542977,0.815084848 Z M260.108092,15.2756589 L252.496372,15.2756589 L252.496372,33.449083 L260.108092,33.449083 C266.451193,33.449083 270.84257,31.2018316 270.84257,24.3623709 C270.84257,17.6206168 266.451193,15.2756589 260.108092,15.2756589 Z M22.9412042,6.28665339 L7.03466071,6.28665339 L7.03466071,29.931646 L22.5508595,29.931646 C31.6263721,29.931646 36.7984384,24.8509038 36.7984384,17.7183234 C36.7984384,10.6834495 32.211889,6.28665339 22.9412042,6.28665339 Z" id="Combined-Shape-Copy-2" fill="#000000"></path>
    </g>
</svg>